<?xml version="1.0" encoding="UTF-8" standalone="no"?>
<!DOCTYPE svg PUBLIC "-//W3C//DTD SVG 1.1//EN"
 "http://www.w3.org/Graphics/SVG/1.1/DTD/svg11.dtd">
<!-- Generated by graphviz version 2.47.1 (20210417.1919)
 -->
<!-- Title: G Pages: 1 -->
<svg width="417pt" height="387pt"
 viewBox="0.00 0.00 416.50 387.00" xmlns="http://www.w3.org/2000/svg" xmlns:xlink="http://www.w3.org/1999/xlink">
<g id="graph0" class="graph" transform="scale(1 1) rotate(0) translate(4 383)">
<title>G</title>
<polygon fill="white" stroke="transparent" points="-4,4 -4,-383 412.5,-383 412.5,4 -4,4"/>
<!-- dpi -->
<g id="node1" class="node">
<title>dpi</title>
<ellipse fill="none" stroke="black" cx="27" cy="-355.5" rx="27" ry="18"/>
<text text-anchor="middle" x="27" y="-351.8" font-family="Times New Roman,serif" font-size="14.00">dpi</text>
</g>
<!-- 1808369389768 -->
<g id="node2" class="node">
<title>1808369389768</title>
<polygon fill="none" stroke="black" points="72.5,-332.5 72.5,-378.5 375.5,-378.5 375.5,-332.5 72.5,-332.5"/>
<text text-anchor="middle" x="135.5" y="-351.8" font-family="Times New Roman,serif" font-size="14.00">input_1: InputLayer</text>
<polyline fill="none" stroke="black" points="198.5,-332.5 198.5,-378.5 "/>
<text text-anchor="middle" x="226.5" y="-363.3" font-family="Times New Roman,serif" font-size="14.00">input:</text>
<polyline fill="none" stroke="black" points="198.5,-355.5 254.5,-355.5 "/>
<text text-anchor="middle" x="226.5" y="-340.3" font-family="Times New Roman,serif" font-size="14.00">output:</text>
<polyline fill="none" stroke="black" points="254.5,-332.5 254.5,-378.5 "/>
<text text-anchor="middle" x="315" y="-363.3" font-family="Times New Roman,serif" font-size="14.00">[(None, 28, 28, 1)]</text>
<polyline fill="none" stroke="black" points="254.5,-355.5 375.5,-355.5 "/>
<text text-anchor="middle" x="315" y="-340.3" font-family="Times New Roman,serif" font-size="14.00">[(None, 28, 28, 1)]</text>
</g>
<!-- 1808379859912 -->
<g id="node3" class="node">
<title>1808379859912</title>
<polygon fill="none" stroke="black" points="80,-249.5 80,-295.5 368,-295.5 368,-249.5 80,-249.5"/>
<text text-anchor="middle" x="136.5" y="-268.8" font-family="Times New Roman,serif" font-size="14.00">conv2d: Conv2D</text>
<polyline fill="none" stroke="black" points="193,-249.5 193,-295.5 "/>
<text text-anchor="middle" x="221" y="-280.3" font-family="Times New Roman,serif" font-size="14.00">input:</text>
<polyline fill="none" stroke="black" points="193,-272.5 249,-272.5 "/>
<text text-anchor="middle" x="221" y="-257.3" font-family="Times New Roman,serif" font-size="14.00">output:</text>
<polyline fill="none" stroke="black" points="249,-249.5 249,-295.5 "/>
<text text-anchor="middle" x="308.5" y="-280.3" font-family="Times New Roman,serif" font-size="14.00">(None, 28, 28, 1)</text>
<polyline fill="none" stroke="black" points="249,-272.5 368,-272.5 "/>
<text text-anchor="middle" x="308.5" y="-257.3" font-family="Times New Roman,serif" font-size="14.00">(None, 13, 13, 32)</text>
</g>
<!-- 1808369389768&#45;&gt;1808379859912 -->
<g id="edge1" class="edge">
<title>1808369389768&#45;&gt;1808379859912</title>
<path fill="none" stroke="black" d="M224,-332.37C224,-324.15 224,-314.66 224,-305.73"/>
<polygon fill="black" stroke="black" points="227.5,-305.61 224,-295.61 220.5,-305.61 227.5,-305.61"/>
</g>
<!-- 1808378976264 -->
<g id="node4" class="node">
<title>1808378976264</title>
<polygon fill="none" stroke="black" points="39.5,-166.5 39.5,-212.5 408.5,-212.5 408.5,-166.5 39.5,-166.5"/>
<text text-anchor="middle" x="136.5" y="-185.8" font-family="Times New Roman,serif" font-size="14.00">max_pooling2d: MaxPooling2D</text>
<polyline fill="none" stroke="black" points="233.5,-166.5 233.5,-212.5 "/>
<text text-anchor="middle" x="261.5" y="-197.3" font-family="Times New Roman,serif" font-size="14.00">input:</text>
<polyline fill="none" stroke="black" points="233.5,-189.5 289.5,-189.5 "/>
<text text-anchor="middle" x="261.5" y="-174.3" font-family="Times New Roman,serif" font-size="14.00">output:</text>
<polyline fill="none" stroke="black" points="289.5,-166.5 289.5,-212.5 "/>
<text text-anchor="middle" x="349" y="-197.3" font-family="Times New Roman,serif" font-size="14.00">(None, 13, 13, 32)</text>
<polyline fill="none" stroke="black" points="289.5,-189.5 408.5,-189.5 "/>
<text text-anchor="middle" x="349" y="-174.3" font-family="Times New Roman,serif" font-size="14.00">(None, 6, 6, 32)</text>
</g>
<!-- 1808379859912&#45;&gt;1808378976264 -->
<g id="edge2" class="edge">
<title>1808379859912&#45;&gt;1808378976264</title>
<path fill="none" stroke="black" d="M224,-249.37C224,-241.15 224,-231.66 224,-222.73"/>
<polygon fill="black" stroke="black" points="227.5,-222.61 224,-212.61 220.5,-222.61 227.5,-222.61"/>
</g>
<!-- 1808378973064 -->
<g id="node5" class="node">
<title>1808378973064</title>
<polygon fill="none" stroke="black" points="96,-83.5 96,-129.5 352,-129.5 352,-83.5 96,-83.5"/>
<text text-anchor="middle" x="143.5" y="-102.8" font-family="Times New Roman,serif" font-size="14.00">flatten: Flatten</text>
<polyline fill="none" stroke="black" points="191,-83.5 191,-129.5 "/>
<text text-anchor="middle" x="219" y="-114.3" font-family="Times New Roman,serif" font-size="14.00">input:</text>
<polyline fill="none" stroke="black" points="191,-106.5 247,-106.5 "/>
<text text-anchor="middle" x="219" y="-91.3" font-family="Times New Roman,serif" font-size="14.00">output:</text>
<polyline fill="none" stroke="black" points="247,-83.5 247,-129.5 "/>
<text text-anchor="middle" x="299.5" y="-114.3" font-family="Times New Roman,serif" font-size="14.00">(None, 6, 6, 32)</text>
<polyline fill="none" stroke="black" points="247,-106.5 352,-106.5 "/>
<text text-anchor="middle" x="299.5" y="-91.3" font-family="Times New Roman,serif" font-size="14.00">(None, 1152)</text>
</g>
<!-- 1808378976264&#45;&gt;1808378973064 -->
<g id="edge3" class="edge">
<title>1808378976264&#45;&gt;1808378973064</title>
<path fill="none" stroke="black" d="M224,-166.37C224,-158.15 224,-148.66 224,-139.73"/>
<polygon fill="black" stroke="black" points="227.5,-139.61 224,-129.61 220.5,-139.61 227.5,-139.61"/>
</g>
<!-- 1808378971144 -->
<g id="node6" class="node">
<title>1808378971144</title>
<polygon fill="none" stroke="black" points="106,-0.5 106,-46.5 342,-46.5 342,-0.5 106,-0.5"/>
<text text-anchor="middle" x="151" y="-19.8" font-family="Times New Roman,serif" font-size="14.00">dense: Dense</text>
<polyline fill="none" stroke="black" points="196,-0.5 196,-46.5 "/>
<text text-anchor="middle" x="224" y="-31.3" font-family="Times New Roman,serif" font-size="14.00">input:</text>
<polyline fill="none" stroke="black" points="196,-23.5 252,-23.5 "/>
<text text-anchor="middle" x="224" y="-8.3" font-family="Times New Roman,serif" font-size="14.00">output:</text>
<polyline fill="none" stroke="black" points="252,-0.5 252,-46.5 "/>
<text text-anchor="middle" x="297" y="-31.3" font-family="Times New Roman,serif" font-size="14.00">(None, 1152)</text>
<polyline fill="none" stroke="black" points="252,-23.5 342,-23.5 "/>
<text text-anchor="middle" x="297" y="-8.3" font-family="Times New Roman,serif" font-size="14.00">(None, 10)</text>
</g>
<!-- 1808378973064&#45;&gt;1808378971144 -->
<g id="edge4" class="edge">
<title>1808378973064&#45;&gt;1808378971144</title>
<path fill="none" stroke="black" d="M224,-83.37C224,-75.15 224,-65.66 224,-56.73"/>
<polygon fill="black" stroke="black" points="227.5,-56.61 224,-46.61 220.5,-56.61 227.5,-56.61"/>
</g>
</g>
</svg>
