<?xml version="1.0" encoding="UTF-8" standalone="no"?>
<!DOCTYPE svg PUBLIC "-//W3C//DTD SVG 1.1//EN"
 "http://www.w3.org/Graphics/SVG/1.1/DTD/svg11.dtd">
<!-- Generated by graphviz version 2.40.1 (20161225.0304)
 -->
<!-- Title: G Pages: 1 -->
<svg width="434pt" height="387pt"
 viewBox="0.00 0.00 433.50 387.00" xmlns="http://www.w3.org/2000/svg" xmlns:xlink="http://www.w3.org/1999/xlink">
<g id="graph0" class="graph" transform="scale(1 1) rotate(0) translate(4 383)">
<title>G</title>
<polygon fill="#ffffff" stroke="transparent" points="-4,4 -4,-383 429.5,-383 429.5,4 -4,4"/>
<!-- dpi -->
<g id="node1" class="node">
<title>dpi</title>
<ellipse fill="none" stroke="#000000" cx="27" cy="-355.5" rx="27" ry="18"/>
<text text-anchor="middle" x="27" y="-351.8" font-family="Times,serif" font-size="14.00" fill="#000000">dpi</text>
</g>
<!-- 140603624216528 -->
<g id="node2" class="node">
<title>140603624216528</title>
<polygon fill="none" stroke="#000000" points="72.5,-332.5 72.5,-378.5 389.5,-378.5 389.5,-332.5 72.5,-332.5"/>
<text text-anchor="middle" x="139" y="-351.8" font-family="Times,serif" font-size="14.00" fill="#000000">input_1: InputLayer</text>
<polyline fill="none" stroke="#000000" points="205.5,-332.5 205.5,-378.5 "/>
<text text-anchor="middle" x="234.5" y="-363.3" font-family="Times,serif" font-size="14.00" fill="#000000">input:</text>
<polyline fill="none" stroke="#000000" points="205.5,-355.5 263.5,-355.5 "/>
<text text-anchor="middle" x="234.5" y="-340.3" font-family="Times,serif" font-size="14.00" fill="#000000">output:</text>
<polyline fill="none" stroke="#000000" points="263.5,-332.5 263.5,-378.5 "/>
<text text-anchor="middle" x="326.5" y="-363.3" font-family="Times,serif" font-size="14.00" fill="#000000">[(None, 28, 28, 1)]</text>
<polyline fill="none" stroke="#000000" points="263.5,-355.5 389.5,-355.5 "/>
<text text-anchor="middle" x="326.5" y="-340.3" font-family="Times,serif" font-size="14.00" fill="#000000">[(None, 28, 28, 1)]</text>
</g>
<!-- 140603588654032 -->
<g id="node3" class="node">
<title>140603588654032</title>
<polygon fill="none" stroke="#000000" points="80.5,-249.5 80.5,-295.5 381.5,-295.5 381.5,-249.5 80.5,-249.5"/>
<text text-anchor="middle" x="139.5" y="-268.8" font-family="Times,serif" font-size="14.00" fill="#000000">conv2d: Conv2D</text>
<polyline fill="none" stroke="#000000" points="198.5,-249.5 198.5,-295.5 "/>
<text text-anchor="middle" x="227.5" y="-280.3" font-family="Times,serif" font-size="14.00" fill="#000000">input:</text>
<polyline fill="none" stroke="#000000" points="198.5,-272.5 256.5,-272.5 "/>
<text text-anchor="middle" x="227.5" y="-257.3" font-family="Times,serif" font-size="14.00" fill="#000000">output:</text>
<polyline fill="none" stroke="#000000" points="256.5,-249.5 256.5,-295.5 "/>
<text text-anchor="middle" x="319" y="-280.3" font-family="Times,serif" font-size="14.00" fill="#000000">(None, 28, 28, 1)</text>
<polyline fill="none" stroke="#000000" points="256.5,-272.5 381.5,-272.5 "/>
<text text-anchor="middle" x="319" y="-257.3" font-family="Times,serif" font-size="14.00" fill="#000000">(None, 13, 13, 32)</text>
</g>
<!-- 140603624216528&#45;&gt;140603588654032 -->
<g id="edge1" class="edge">
<title>140603624216528&#45;&gt;140603588654032</title>
<path fill="none" stroke="#000000" d="M231,-332.3799C231,-324.1745 231,-314.7679 231,-305.8786"/>
<polygon fill="#000000" stroke="#000000" points="234.5001,-305.784 231,-295.784 227.5001,-305.784 234.5001,-305.784"/>
</g>
<!-- 140603579080784 -->
<g id="node4" class="node">
<title>140603579080784</title>
<polygon fill="none" stroke="#000000" points="36.5,-166.5 36.5,-212.5 425.5,-212.5 425.5,-166.5 36.5,-166.5"/>
<text text-anchor="middle" x="139.5" y="-185.8" font-family="Times,serif" font-size="14.00" fill="#000000">max_pooling2d: MaxPooling2D</text>
<polyline fill="none" stroke="#000000" points="242.5,-166.5 242.5,-212.5 "/>
<text text-anchor="middle" x="271.5" y="-197.3" font-family="Times,serif" font-size="14.00" fill="#000000">input:</text>
<polyline fill="none" stroke="#000000" points="242.5,-189.5 300.5,-189.5 "/>
<text text-anchor="middle" x="271.5" y="-174.3" font-family="Times,serif" font-size="14.00" fill="#000000">output:</text>
<polyline fill="none" stroke="#000000" points="300.5,-166.5 300.5,-212.5 "/>
<text text-anchor="middle" x="363" y="-197.3" font-family="Times,serif" font-size="14.00" fill="#000000">(None, 13, 13, 32)</text>
<polyline fill="none" stroke="#000000" points="300.5,-189.5 425.5,-189.5 "/>
<text text-anchor="middle" x="363" y="-174.3" font-family="Times,serif" font-size="14.00" fill="#000000">(None, 6, 6, 32)</text>
</g>
<!-- 140603588654032&#45;&gt;140603579080784 -->
<g id="edge2" class="edge">
<title>140603588654032&#45;&gt;140603579080784</title>
<path fill="none" stroke="#000000" d="M231,-249.3799C231,-241.1745 231,-231.7679 231,-222.8786"/>
<polygon fill="#000000" stroke="#000000" points="234.5001,-222.784 231,-212.784 227.5001,-222.784 234.5001,-222.784"/>
</g>
<!-- 140603582666704 -->
<g id="node5" class="node">
<title>140603582666704</title>
<polygon fill="none" stroke="#000000" points="98,-83.5 98,-129.5 364,-129.5 364,-83.5 98,-83.5"/>
<text text-anchor="middle" x="147" y="-102.8" font-family="Times,serif" font-size="14.00" fill="#000000">flatten: Flatten</text>
<polyline fill="none" stroke="#000000" points="196,-83.5 196,-129.5 "/>
<text text-anchor="middle" x="225" y="-114.3" font-family="Times,serif" font-size="14.00" fill="#000000">input:</text>
<polyline fill="none" stroke="#000000" points="196,-106.5 254,-106.5 "/>
<text text-anchor="middle" x="225" y="-91.3" font-family="Times,serif" font-size="14.00" fill="#000000">output:</text>
<polyline fill="none" stroke="#000000" points="254,-83.5 254,-129.5 "/>
<text text-anchor="middle" x="309" y="-114.3" font-family="Times,serif" font-size="14.00" fill="#000000">(None, 6, 6, 32)</text>
<polyline fill="none" stroke="#000000" points="254,-106.5 364,-106.5 "/>
<text text-anchor="middle" x="309" y="-91.3" font-family="Times,serif" font-size="14.00" fill="#000000">(None, 1152)</text>
</g>
<!-- 140603579080784&#45;&gt;140603582666704 -->
<g id="edge3" class="edge">
<title>140603579080784&#45;&gt;140603582666704</title>
<path fill="none" stroke="#000000" d="M231,-166.3799C231,-158.1745 231,-148.7679 231,-139.8786"/>
<polygon fill="#000000" stroke="#000000" points="234.5001,-139.784 231,-129.784 227.5001,-139.784 234.5001,-139.784"/>
</g>
<!-- 140603592294160 -->
<g id="node6" class="node">
<title>140603592294160</title>
<polygon fill="none" stroke="#000000" points="109,-.5 109,-46.5 353,-46.5 353,-.5 109,-.5"/>
<text text-anchor="middle" x="155" y="-19.8" font-family="Times,serif" font-size="14.00" fill="#000000">dense: Dense</text>
<polyline fill="none" stroke="#000000" points="201,-.5 201,-46.5 "/>
<text text-anchor="middle" x="230" y="-31.3" font-family="Times,serif" font-size="14.00" fill="#000000">input:</text>
<polyline fill="none" stroke="#000000" points="201,-23.5 259,-23.5 "/>
<text text-anchor="middle" x="230" y="-8.3" font-family="Times,serif" font-size="14.00" fill="#000000">output:</text>
<polyline fill="none" stroke="#000000" points="259,-.5 259,-46.5 "/>
<text text-anchor="middle" x="306" y="-31.3" font-family="Times,serif" font-size="14.00" fill="#000000">(None, 1152)</text>
<polyline fill="none" stroke="#000000" points="259,-23.5 353,-23.5 "/>
<text text-anchor="middle" x="306" y="-8.3" font-family="Times,serif" font-size="14.00" fill="#000000">(None, 10)</text>
</g>
<!-- 140603582666704&#45;&gt;140603592294160 -->
<g id="edge4" class="edge">
<title>140603582666704&#45;&gt;140603592294160</title>
<path fill="none" stroke="#000000" d="M231,-83.3799C231,-75.1745 231,-65.7679 231,-56.8786"/>
<polygon fill="#000000" stroke="#000000" points="234.5001,-56.784 231,-46.784 227.5001,-56.784 234.5001,-56.784"/>
</g>
</g>
</svg>
